<svg xmlns="http://www.w3.org/2000/svg" xmlns:xlink="http://www.w3.org/1999/xlink" width="397" zoomAndPan="magnify" viewBox="0 0 297.75 419.249996" height="559" preserveAspectRatio="xMidYMid meet" version="1.0"><defs><clipPath id="0f943f175d"><path d="M 3 3 L 144.585938 3 L 144.585938 128 L 3 128 Z M 3 3 " clip-rule="nonzero"/></clipPath><clipPath id="7e1432b610"><path d="M 3.453125 -0.0273438 L 144.828125 2.777344 L 142.332031 128.445312 L 0.957031 125.640625 Z M 3.453125 -0.0273438 " clip-rule="nonzero"/></clipPath><clipPath id="c7cbd17ca3"><path d="M 3.453125 -0.0273438 L 144.828125 2.777344 L 142.332031 128.445312 L 0.957031 125.640625 Z M 3.453125 -0.0273438 " clip-rule="nonzero"/></clipPath><clipPath id="c044144196"><rect x="0" width="145" y="0" height="129"/></clipPath></defs><g transform="matrix(1, 0, 0, 1, 98, 113)"><g clip-path="url(#c044144196)"><g clip-path="url(#0f943f175d)"><g clip-path="url(#7e1432b610)"><g clip-path="url(#c7cbd17ca3)"><path fill="#ac0104" d="M 144.25 3.777344 C 144.195312 3.660156 144.074219 3.503906 143.820312 3.417969 C 141.8125 2.742188 131.34375 8.023438 115.585938 16.175781 C 115.40625 16.179688 115.222656 16.179688 115.035156 16.179688 C 105.703125 16.230469 93.660156 16.417969 82.011719 16.597656 C 66.257812 16.839844 51.375 17.074219 46.917969 16.890625 C 41.78125 16.679688 30.992188 16.664062 21.117188 17.054688 C 3.21875 17.757812 3.128906 19.109375 3.089844 19.6875 C 3.058594 20.148438 3.367188 21.042969 6.046875 23.851562 C 7.675781 25.558594 9.976562 27.746094 12.6875 30.175781 C 17.574219 34.550781 22.902344 38.875 24.089844 39.441406 C 24.464844 39.617188 25.316406 39.769531 26.535156 39.890625 C 26.359375 40.085938 26.21875 40.292969 26.117188 40.519531 C 25.648438 41.554688 26.0625 42.777344 27.347656 44.152344 C 29.855469 46.847656 34.746094 51.132812 40.40625 56.09375 C 50.539062 64.980469 63.148438 76.035156 64.097656 80.085938 C 65.601562 86.535156 64.578125 110.929688 63.855469 112.167969 C 63.503906 112.542969 60.21875 112.976562 57.042969 113.390625 C 51.042969 114.179688 41.976562 115.367188 35.558594 117.929688 C 31.351562 119.605469 29.546875 120.925781 29.703125 122.210938 C 29.894531 123.777344 32.90625 124.792969 40.449219 125.832031 C 45.308594 126.5 52.957031 126.882812 60.464844 127.03125 C 67.972656 127.179688 75.207031 127.097656 79.539062 126.839844 C 80.671875 126.769531 81.855469 126.710938 82.996094 126.648438 C 91.113281 126.234375 98.78125 125.839844 99.175781 122.65625 C 99.234375 122.179688 98.964844 121.664062 98.371094 121.136719 C 95.078125 118.203125 81.195312 114.15625 71.96875 113.972656 C 71.933594 113.972656 71.902344 113.972656 71.871094 113.972656 C 72.285156 112.425781 72.53125 110.570312 72.625 108.394531 C 72.804688 104.046875 72.609375 99.097656 72.421875 94.3125 C 72.15625 87.492188 71.90625 81.050781 72.945312 78.941406 C 73.988281 76.828125 85.292969 65.65625 95.265625 55.808594 C 102.0625 49.09375 108.476562 42.753906 110.640625 40.261719 C 112.492188 38.125 115.664062 34.835938 119.023438 31.347656 C 122.125 28.128906 125.328125 24.804688 127.707031 22.167969 C 131.5625 17.890625 131.660156 17.195312 131.402344 16.769531 C 131.269531 16.546875 131.117188 16.304688 125.46875 16.210938 C 136.589844 11.609375 143.234375 8.386719 144.308594 5.597656 C 144.546875 4.972656 144.527344 4.363281 144.25 3.777344 Z M 115.675781 16.914062 C 115.703125 16.898438 115.730469 16.882812 115.757812 16.871094 C 118.078125 16.859375 120.214844 16.855469 122.109375 16.867188 C 117.675781 18.757812 112.929688 20.917969 108.316406 23.019531 C 103.757812 25.097656 99.449219 27.058594 96.183594 28.410156 C 94.609375 29.066406 93.457031 29.5 92.617188 29.78125 C 92.460938 29.144531 92.148438 28.597656 91.644531 28.183594 C 90.238281 27.019531 89.546875 27.539062 89.3125 27.8125 C 88.722656 28.515625 89.039062 30.023438 89.941406 30.796875 C 90.230469 31.042969 90.894531 31.011719 92.050781 30.683594 C 92.125 32.410156 91.222656 34.792969 89.863281 37.1875 C 78.5625 35.984375 73.378906 35.5625 60.71875 37.664062 C 59.457031 37.875 58.128906 38.0625 56.761719 38.238281 C 57.199219 36.660156 59.273438 31.605469 68.46875 27.328125 C 72.664062 25.375 76.523438 24.785156 79.90625 24.851562 C 83.976562 24.933594 87.363281 25.964844 89.839844 26.71875 C 91.121094 27.109375 92.132812 27.417969 92.949219 27.523438 C 92.980469 27.527344 93.019531 27.53125 93.058594 27.53125 C 94.933594 27.570312 102.902344 23.515625 115.671875 16.910156 Z M 91.960938 29.996094 C 90.832031 30.339844 90.488281 30.320312 90.394531 30.273438 C 89.699219 29.679688 89.5625 28.597656 89.847656 28.261719 C 89.910156 28.183594 90 28.152344 90.117188 28.152344 C 90.378906 28.15625 90.765625 28.355469 91.207031 28.71875 C 91.59375 29.039062 91.839844 29.472656 91.960938 29.996094 Z M 24.390625 38.820312 C 23.378906 38.339844 18.359375 34.324219 13.152344 29.664062 C 6.199219 23.441406 3.761719 20.4375 3.777344 19.742188 C 3.871094 19.574219 5.113281 18.351562 21.558594 17.726562 C 31.300781 17.355469 41.878906 17.371094 46.890625 17.578125 C 51.367188 17.757812 66.257812 17.53125 82.023438 17.285156 C 92.738281 17.117188 104.777344 16.929688 114.234375 16.875 C 104.386719 21.964844 94.542969 27.023438 93.039062 26.832031 C 92.28125 26.738281 91.246094 26.421875 90.046875 26.054688 C 85.417969 24.644531 77.667969 22.28125 68.179688 26.699219 C 59.539062 30.71875 56.707031 35.617188 56.0625 38.214844 C 55.179688 37.734375 53.675781 37.289062 51.117188 37.238281 C 50.640625 37.230469 50.066406 37.210938 49.40625 37.195312 C 40.222656 36.941406 30.703125 37.027344 27.269531 39.277344 C 25.804688 39.160156 24.792969 39.003906 24.390625 38.8125 Z M 54.855469 38.464844 C 45.433594 39.488281 34.5 39.691406 28.570312 39.367188 C 33.15625 37.445312 44.585938 37.761719 49.386719 37.894531 C 50.046875 37.914062 50.625 37.929688 51.101562 37.9375 C 52.734375 37.96875 53.964844 38.179688 54.855469 38.464844 Z M 130.765625 17.171875 C 130.648438 17.527344 129.984375 18.621094 126.933594 21.988281 C 124.589844 24.566406 121.507812 27.769531 118.527344 30.863281 C 115.160156 34.355469 111.984375 37.652344 110.117188 39.804688 C 107.976562 42.277344 101.566406 48.609375 94.78125 55.3125 C 84.28125 65.6875 73.425781 76.414062 72.328125 78.636719 C 71.210938 80.902344 71.453125 87.128906 71.734375 94.339844 C 71.921875 99.117188 72.113281 104.050781 71.9375 108.371094 C 71.84375 110.585938 71.589844 112.445312 71.160156 113.972656 C 69.59375 113.980469 68.179688 114.113281 67.007812 114.394531 C 63.699219 115.195312 58.164062 116.804688 58.285156 118.585938 C 58.34375 119.414062 59.480469 119.925781 61.769531 120.15625 C 64.3125 120.410156 67.195312 120.425781 69.292969 118.601562 C 70.324219 117.703125 71.117188 116.40625 71.667969 114.675781 C 80.664062 114.800781 94.738281 118.828125 97.910156 121.65625 C 98.3125 122.015625 98.523438 122.34375 98.492188 122.578125 C 98.167969 125.183594 90.089844 125.601562 82.964844 125.964844 C 81.820312 126.027344 80.640625 126.085938 79.503906 126.15625 C 70.820312 126.675781 50.179688 126.480469 40.546875 125.152344 C 38.082031 124.8125 30.59375 123.78125 30.394531 122.136719 C 30.332031 121.640625 30.957031 120.519531 35.816406 118.582031 C 42.15625 116.050781 51.167969 114.871094 57.132812 114.085938 C 62.335938 113.40625 64.046875 113.136719 64.429688 112.566406 C 65.378906 111.132812 66.230469 86.175781 64.773438 79.933594 C 63.777344 75.664062 51.605469 64.996094 40.867188 55.578125 C 35.457031 50.835938 30.347656 46.351562 27.859375 43.6875 C 26.785156 42.535156 26.414062 41.566406 26.757812 40.808594 C 26.894531 40.503906 27.136719 40.226562 27.46875 39.976562 C 33.394531 40.421875 45.601562 40.261719 55.921875 39.046875 C 55.902344 39.238281 55.902344 39.40625 55.914062 39.546875 C 55.972656 40.207031 56.273438 40.386719 56.449219 40.433594 C 56.734375 40.511719 57.007812 40.4375 57.179688 40.238281 C 57.371094 40.011719 57.394531 39.671875 57.242188 39.328125 C 57.199219 39.234375 57.117188 39.085938 56.96875 38.917969 C 58.300781 38.75 59.59375 38.5625 60.832031 38.355469 C 73.285156 36.289062 78.464844 36.679688 89.484375 37.851562 C 89.070312 38.535156 88.621094 39.21875 88.152344 39.882812 C 86.519531 42.191406 81.859375 45.195312 76.816406 47.191406 C 73.242188 48.609375 66.484375 50.683594 61.375 48.679688 C 58.089844 47.390625 56.816406 45.699219 56.328125 44.488281 C 56.761719 43.957031 56.984375 43.425781 56.996094 42.890625 C 57.019531 41.648438 56.648438 41.332031 56.332031 41.289062 C 55.945312 41.238281 55.601562 41.589844 55.4375 42.21875 C 55.289062 42.777344 55.277344 43.527344 55.53125 44.359375 C 53.484375 46.425781 47.800781 48.257812 44.007812 49.242188 L 53.722656 43.234375 C 53.882812 43.132812 53.933594 42.917969 53.832031 42.753906 C 53.730469 42.59375 53.519531 42.542969 53.355469 42.644531 L 41.808594 49.785156 C 41.667969 49.871094 41.609375 50.050781 41.671875 50.207031 C 41.734375 50.367188 41.902344 50.453125 42.066406 50.417969 C 42.101562 50.410156 45.773438 49.605469 49.40625 48.320312 C 52.441406 47.246094 54.578125 46.148438 55.792969 45.039062 C 56.480469 46.503906 58.035156 48.113281 61.117188 49.320312 C 66.449219 51.410156 73.398438 49.285156 77.070312 47.832031 C 82.222656 45.789062 87.015625 42.6875 88.71875 40.277344 C 89.246094 39.53125 89.761719 38.738281 90.238281 37.925781 C 90.542969 37.957031 90.851562 37.992188 91.160156 38.023438 L 92.644531 38.183594 C 105.023438 39.5 110.167969 39.902344 111.207031 38.578125 C 111.363281 38.375 111.511719 38.023438 111.324219 37.511719 C 111.085938 36.851562 110.066406 35.980469 104.042969 36.023438 C 100.824219 36.042969 97.660156 36.328125 97.628906 36.328125 C 97.441406 36.347656 97.296875 36.515625 97.316406 36.703125 C 97.332031 36.894531 97.496094 37.035156 97.691406 37.019531 C 97.71875 37.015625 100.859375 36.738281 104.046875 36.71875 C 109.828125 36.675781 110.582031 37.5 110.675781 37.75 C 110.769531 38.011719 110.691406 38.113281 110.660156 38.15625 C 109.757812 39.3125 101.480469 38.429688 92.71875 37.5 L 91.234375 37.339844 C 91.023438 37.320312 90.816406 37.296875 90.609375 37.273438 C 91.9375 34.875 92.859375 32.378906 92.722656 30.484375 C 95.488281 29.578125 100.449219 27.367188 108.601562 23.65625 C 113.730469 21.320312 119.015625 18.914062 123.859375 16.882812 C 127.574219 16.917969 130.082031 17.007812 130.765625 17.175781 Z M 70.941406 114.667969 C 70.433594 116.167969 69.734375 117.296875 68.835938 118.074219 C 66.9375 119.726562 64.230469 119.703125 61.832031 119.464844 C 59.613281 119.242188 58.988281 118.773438 58.972656 118.535156 C 58.933594 117.945312 61.082031 116.539062 67.167969 115.066406 C 68.230469 114.808594 69.511719 114.683594 70.941406 114.667969 Z M 56.300781 42.875 C 56.296875 43.132812 56.222656 43.386719 56.082031 43.640625 C 56.066406 43.539062 56.054688 43.441406 56.042969 43.359375 C 55.984375 42.71875 56.113281 42.273438 56.226562 42.070312 C 56.265625 42.207031 56.308594 42.460938 56.300781 42.875 Z M 143.660156 5.347656 C 142.667969 7.925781 135.714844 11.234375 124.816406 15.730469 C 124.449219 15.878906 124.082031 16.03125 123.714844 16.1875 C 121.957031 16.167969 119.785156 16.164062 117.105469 16.171875 C 123.144531 13.046875 129.269531 9.894531 134.164062 7.578125 C 140.753906 4.460938 142.777344 4.011719 143.386719 4.023438 C 143.527344 4.027344 143.59375 4.050781 143.625 4.074219 C 143.820312 4.488281 143.832031 4.902344 143.660156 5.347656 Z M 143.660156 5.347656 " fill-opacity="1" fill-rule="nonzero"/></g></g></g></g></g></svg>